# xmcd
#
# Track frame offsets:
#	150
#	14961
#	27759
#	41717
#
# Disc length: 752 seconds
#
# Revision: 0
# Processed by: cddbd v1.5.2PL0 Copyright (c) Steve Scherf et al.
# Submitted via: dBpowerAMP V4.0
#
DISCID=2f02ee04
DTITLE=The Wedding Present - Santa Ana Winds EP
DYEAR=2008
DGENRE=Rock
TTITLE0=Santa Ana Winds (Edit)
TTITLE1=Hulk Loves Betty
TTITLE2=Drink You, Eat You
TTITLE3=Twenty Jackies
EXTD=
EXTT0=
EXTT1=
EXTT2=
EXTT3=
PLAYORDER=
